<svg width="41" height="41" viewBox="0 0 41 41" fill="none" xmlns="http://www.w3.org/2000/svg">
<g clip-path="url(#clip0_1041_2042)">
<path d="M19.9305 10.5385C21.5391 10.5385 23.5555 9.40941 24.7562 7.904C25.8437 6.53973 26.6367 4.63446 26.6367 2.72918C26.6367 2.47044 26.6141 2.2117 26.5687 2C24.7789 2.07057 22.6266 3.24666 21.3352 4.82263C20.3156 6.02225 19.3867 7.90401 19.3867 9.8328C19.3867 10.1151 19.432 10.3973 19.4547 10.4914C19.568 10.5149 19.7492 10.5385 19.9305 10.5385ZM14.2664 39C16.4641 39 17.4383 37.4711 20.1797 37.4711C22.9664 37.4711 23.5781 38.953 26.025 38.953C28.4266 38.953 30.0352 36.6478 31.5531 34.3897C33.2523 31.8023 33.9547 29.2619 34 29.1443C33.8414 29.0973 29.2422 27.1449 29.2422 21.6643C29.2422 16.9129 32.8672 14.7724 33.0711 14.6078C30.6695 11.0324 27.0219 10.9383 26.025 10.9383C23.3289 10.9383 21.1312 12.6319 19.7492 12.6319C18.2539 12.6319 16.2828 11.0324 13.9492 11.0324C9.50859 11.0324 5 14.843 5 22.0407C5 26.5099 6.67656 31.2378 8.73828 34.2956C10.5055 36.883 12.0461 39 14.2664 39Z" fill="black"/>
</g>
<defs>
<clipPath id="clip0_1041_2042">
<rect width="41" height="41" fill="white"/>
</clipPath>
</defs>
</svg>
