<svg width="201" height="271" viewBox="0 0 201 271" fill="none" xmlns="http://www.w3.org/2000/svg">
<path fill-rule="evenodd" clip-rule="evenodd" d="M100.022 270.5C43.9082 270.5 1.36235 226.888 0.0532505 172.103C0.011919 170.374 -0.0258027 168.644 0.0231148 166.914C0.287271 157.575 3.4501 124.12 33.5225 86C44.8258 71.6719 53.4919 55.9778 61.2302 41.964C74.0993 18.6584 84.4022 0 100.002 0C115.479 0 125.653 18.349 138.498 41.5151C146.384 55.7382 155.277 71.7771 167.022 86.5C201.411 129.607 200.141 166.04 200.028 169.29C200.025 169.395 200.022 169.465 200.022 169.5C200.022 225.5 157.022 270.5 100.022 270.5ZM39.9308 177.5C39.9775 177.173 40.0017 176.84 40.0017 176.5C40.0017 172.634 36.8677 169.5 33.0017 169.5C29.1357 169.5 26.0017 172.634 26.0017 176.5C26.0017 176.84 26.0259 177.173 26.0726 177.5H26.0017C26.0017 204.765 42.6505 224.066 63.2338 231.135C64.6162 232 66.2506 232.5 68.0017 232.5C72.9722 232.5 77.0017 228.471 77.0017 223.5C77.0017 219.901 74.8892 216.795 71.8365 215.356L72.0017 215C47.085 207.127 40.5683 179.375 40.5683 177.5H39.9308Z" fill="#57C469"/>
</svg>
